<svg xmlns="http://www.w3.org/2000/svg" viewBox="0 0 1200 750"><defs><linearGradient id="sky" x1="0" y1="0" x2="0" y2="1"><stop offset="0" stop-color="#1a120e"/><stop offset=".5" stop-color="#5a3018"/><stop offset="1" stop-color="#0e0c0a"/></linearGradient></defs><rect width="1200" height="750" fill="url(#sky)"/><path d="M-20 430 L320 200 L540 430 Z" fill="#1c1816"/><path d="M280 430 L620 140 L980 430 Z" fill="#141210"/><path d="M0 430 L1200 430 L1200 750 L0 750 Z" fill="#12100e"/><path d="M480 750 L560 470 L640 470 L760 750 Z" fill="#1c1814"/><g transform="translate(560 500)"><path d="M16 18 C22 18 26 24 24 32 L22 54 L28 82 L20 82 L16 58 L12 82 L4 82 L10 54 L8 32 C6 24 10 18 16 18 Z" fill="#1a1410"/><circle cx="16" cy="12" r="7" fill="#1a1410"/></g></svg>