<svg xmlns="http://www.w3.org/2000/svg" viewBox="0 0 1200 750" preserveAspectRatio="xMidYMid slice">
  <defs>
    <linearGradient id="sky" x1="0" y1="0" x2="0" y2="1">
      <stop offset="0" stop-color="#1a1c22"/>
      <stop offset="0.34" stop-color="#4a463c"/>
      <stop offset="0.58" stop-color="#7a6a50"/>
      <stop offset="0.78" stop-color="#2c261e"/>
      <stop offset="1" stop-color="#0c0b09"/>
    </linearGradient>
    <radialGradient id="vol" cx="0.62" cy="0.18" r="0.62">
      <stop offset="0" stop-color="#e4d2b0" stop-opacity="0.22"/>
      <stop offset="0.4" stop-color="#8a7848" stop-opacity="0.1"/>
      <stop offset="1" stop-color="#0c0b09" stop-opacity="0"/>
    </radialGradient>
    <linearGradient id="shaft" x1="0.58" y1="0" x2="0.42" y2="1">
      <stop offset="0" stop-color="#f0e2c8" stop-opacity="0.18"/>
      <stop offset="0.45" stop-color="#6e6248" stop-opacity="0.07"/>
      <stop offset="1" stop-color="#0c0b09" stop-opacity="0"/>
    </linearGradient>
    <linearGradient id="road" x1="0" y1="0" x2="0" y2="1">
      <stop offset="0" stop-color="#3a342c"/>
      <stop offset="1" stop-color="#0a0908"/>
    </linearGradient>
  </defs>
  <rect width="1200" height="750" fill="url(#sky)"/>
  <rect width="1200" height="750" fill="url(#vol)"/>
  <polygon points="620,0 860,0 700,750 430,750" fill="url(#shaft)"/>
  <path d="M-40 280 L160 200 L320 248 L500 168 L680 230 L860 156 L1040 214 L1240 176 L1240 370 L-40 370 Z" fill="#221e18"/>
  <path d="M-20 328 L200 246 L380 300 L560 220 L760 292 L980 214 L1160 270 L1240 250 L1240 420 L-20 420 Z" fill="#16140f"/>
  <path d="M0 392 L220 318 L440 368 L660 286 L880 352 L1100 304 L1200 340 L1200 480 L0 480 Z" fill="#0e0c0a"/>
  <path d="M280 750 L520 430 L700 424 L980 750 Z" fill="url(#road)"/>
  <path d="M400 750 L560 458 L650 454 L820 750 Z" fill="#1c1914" opacity="0.9"/>
  <path d="M470 750 L590 490 L650 488 L760 750 Z" fill="#4a4034" opacity="0.35"/>
  <g fill="#14120e" opacity="0.85">
    <ellipse cx="210" cy="560" rx="18" ry="7"/>
    <rect x="198" y="528" width="10" height="28" rx="2"/>
    <circle cx="203" cy="522" r="5"/>
    <ellipse cx="340" cy="548" rx="16" ry="6"/>
    <rect x="330" y="518" width="9" height="26" rx="2"/>
    <circle cx="334" cy="512" r="4.5"/>
    <ellipse cx="880" cy="552" rx="17" ry="6"/>
    <rect x="870" y="522" width="9" height="26" rx="2"/>
    <circle cx="874" cy="516" r="4.5"/>
    <ellipse cx="990" cy="568" rx="15" ry="6"/>
    <rect x="982" y="540" width="8" height="24" rx="2"/>
    <circle cx="986" cy="534" r="4"/>
  </g>
  <g fill="#0c0b09">
    <ellipse cx="150" cy="690" rx="11" ry="4"/>
    <rect x="146" y="666" width="7" height="22"/>
    <circle cx="149" cy="661" r="3.5"/>
  </g>
  <g fill="#1a1612">
    <ellipse cx="612" cy="612" rx="14" ry="5"/>
    <path d="M606 612 L604 578 L616 574 L618 612 Z"/>
    <circle cx="612" cy="568" r="5"/>
    <path d="M606 590 L586 604" stroke="#1a1612" stroke-width="3"/>
    <path d="M616 588 L632 578" stroke="#1a1612" stroke-width="3"/>
  </g>
  <text x="64" y="700" fill="#c4b49a" font-family="Georgia, serif" font-size="28" letter-spacing="6">流 · 10.03</text>
</svg>
